<svg width="253" height="218" viewBox="0 0 253 218" fill="none" xmlns="http://www.w3.org/2000/svg">
<g clip-path="url(#clip0_3_89)">
<rect x="5.5" y="60" width="240" height="153" fill="#CDCDE2"/>
<rect x="7.45776" y="30.4335" width="238.746" height="32.0077" fill="#C5425A"/>
<rect x="19.0015" y="4.72247" width="14.1673" height="39.8784" fill="#086C5F"/>
<rect x="52.5833" y="4.72247" width="14.1673" height="39.8784" fill="#086C5F"/>
<rect x="86.165" y="4.72247" width="14.1673" height="39.8784" fill="#086C5F"/>
<rect x="119.747" y="4.72247" width="14.1673" height="39.8784" fill="#086C5F"/>
<rect x="153.329" y="4.72247" width="14.1673" height="39.8784" fill="#086C5F"/>
<rect x="186.911" y="4.72247" width="14.1673" height="39.8784" fill="#086C5F"/>
<rect x="220.492" y="4.72247" width="14.1673" height="39.8784" fill="#086C5F"/>
<rect x="21.1003" y="79.7568" width="16.7909" height="16.7909" fill="#086C5F"/>
<rect x="180.614" y="79.7568" width="16.7909" height="16.7909" fill="#086C5F"/>
<rect x="21.1003" y="146.92" width="16.7909" height="16.7909" fill="#086C5F"/>
<rect x="214.72" y="146.92" width="16.7909" height="16.7909" fill="#086C5F"/>
<rect x="21.1003" y="113.339" width="16.7909" height="16.7909" fill="#086C5F"/>
<rect x="214.72" y="113.339" width="16.7909" height="16.7909" fill="#086C5F"/>
<rect x="21.1003" y="180.502" width="16.7909" height="16.7909" fill="#086C5F"/>
<rect x="214.72" y="180.502" width="16.7909" height="16.7909" fill="#086C5F"/>
<rect x="55.2069" y="79.7568" width="16.7909" height="16.7909" fill="#086C5F"/>
<rect x="214.72" y="79.7568" width="16.7909" height="16.7909" fill="#086C5F"/>
<path d="M59.9295 110.453L193.47 109.403L201.865 128.031H52.5835L59.9295 110.453Z" fill="#C5425A"/>
<path d="M93.5114 99.9583L126.568 80.0191L160.15 98.3842V117.274L126.568 97.3347L93.5114 117.274V99.9583Z" fill="#C5425A"/>
<path d="M61.5038 129.08L101.907 128.555L102.694 112.027L127.093 97.3347L152.804 114.65V129.08H190.059V181.552H61.5038V129.08Z" fill="#8AD6CC"/>
<circle cx="126.568" cy="121.734" r="5.24716" fill="#EDFF61"/>
<path d="M240.925 25.1538H240.4V9.43269C240.4 4.23161 236.161 0 230.95 0H224.65C219.439 0 215.2 4.23161 215.2 9.43269V25.1538H206.8V9.43269C206.8 4.23161 202.561 0 197.35 0H191.05C185.839 0 181.6 4.23161 181.6 9.43269V25.1538H173.2V9.43269C173.2 4.23161 168.961 0 163.75 0H157.45C152.239 0 148 4.23161 148 9.43269V25.1538H139.6V9.43269C139.6 4.23161 135.361 0 130.15 0H123.85C118.639 0 114.4 4.23161 114.4 9.43269V25.1538H106V9.43269C106 4.23161 101.761 0 96.55 0H90.25C85.0394 0 80.8 4.23161 80.8 9.43269V25.1538H72.4V9.43269C72.4 4.23161 68.1606 0 62.95 0H56.65C51.4394 0 47.2 4.23161 47.2 9.43269V25.1538H38.8V9.43269C38.8 4.23161 34.5606 0 29.35 0H23.05C17.8394 0 13.6 4.23161 13.6 9.43269V25.1538H13.075C6.41695 25.1538 1 30.5604 1 37.2067V205.947C1 212.593 6.41695 218 13.075 218H240.925C247.583 218 253 212.593 253 205.947V37.2067C253 30.5604 247.583 25.1538 240.925 25.1538ZM223.6 9.43269C223.6 8.85468 224.071 8.38461 224.65 8.38461H230.95C231.529 8.38461 232 8.85468 232 9.43269V40.875C232 41.453 231.529 41.9231 230.95 41.9231H224.65C224.071 41.9231 223.6 41.453 223.6 40.875V9.43269ZM190 9.43269C190 8.85468 190.471 8.38461 191.05 8.38461H197.35C197.929 8.38461 198.4 8.85468 198.4 9.43269V40.875C198.4 41.453 197.929 41.9231 197.35 41.9231H191.05C190.471 41.9231 190 41.453 190 40.875V9.43269ZM156.4 9.43269C156.4 8.85468 156.871 8.38461 157.45 8.38461H163.75C164.329 8.38461 164.8 8.85468 164.8 9.43269V40.875C164.8 41.453 164.329 41.9231 163.75 41.9231H157.45C156.871 41.9231 156.4 41.453 156.4 40.875V9.43269ZM122.8 9.43269C122.8 8.85468 123.271 8.38461 123.85 8.38461H130.15C130.729 8.38461 131.2 8.85468 131.2 9.43269V40.875C131.2 41.453 130.729 41.9231 130.15 41.9231H123.85C123.271 41.9231 122.8 41.453 122.8 40.875V9.43269ZM89.2 9.43269C89.2 8.85468 89.6709 8.38461 90.25 8.38461H96.55C97.1291 8.38461 97.6 8.85468 97.6 9.43269V40.875C97.6 41.453 97.1291 41.9231 96.55 41.9231H90.25C89.6709 41.9231 89.2 41.453 89.2 40.875V9.43269ZM55.6 9.43269C55.6 8.85468 56.0709 8.38461 56.65 8.38461H62.95C63.5291 8.38461 64 8.85468 64 9.43269V40.875C64 41.453 63.5291 41.9231 62.95 41.9231H56.65C56.0709 41.9231 55.6 41.453 55.6 40.875V9.43269ZM22 9.43269C22 8.85468 22.4709 8.38461 23.05 8.38461H29.35C29.9291 8.38461 30.4 8.85468 30.4 9.43269V40.875C30.4 41.453 29.9291 41.9231 29.35 41.9231H23.05C22.4709 41.9231 22 41.453 22 40.875V9.43269ZM13.075 33.5385H13.6V40.875C13.6 46.0761 17.8394 50.3077 23.05 50.3077H29.35C34.5606 50.3077 38.8 46.0761 38.8 40.875V33.5385H47.2V40.875C47.2 46.0761 51.4394 50.3077 56.65 50.3077H62.95C68.1606 50.3077 72.4 46.0761 72.4 40.875V33.5385H80.8V40.875C80.8 46.0761 85.0394 50.3077 90.25 50.3077H96.55C101.761 50.3077 106 46.0761 106 40.875V33.5385H114.4V40.875C114.4 46.0761 118.639 50.3077 123.85 50.3077H130.15C135.361 50.3077 139.6 46.0761 139.6 40.875V33.5385H148V40.875C148 46.0761 152.239 50.3077 157.45 50.3077H163.75C168.961 50.3077 173.2 46.0761 173.2 40.875V33.5385H181.6V40.875C181.6 46.0761 185.839 50.3077 191.05 50.3077H197.35C202.561 50.3077 206.8 46.0761 206.8 40.875V33.5385H215.2V40.875C215.2 46.0761 219.439 50.3077 224.65 50.3077H230.95C236.161 50.3077 240.4 46.0761 240.4 40.875V33.5385H240.925C242.951 33.5385 244.6 35.1845 244.6 37.2067V58.6923H9.4V37.2067C9.4 35.1845 11.0485 33.5385 13.075 33.5385ZM240.925 209.615H13.075C11.0485 209.615 9.4 207.969 9.4 205.947V67.0769H244.6V205.947C244.6 207.969 242.951 209.615 240.925 209.615Z" fill="black"/>
<path d="M39.4615 76H22.6923C20.3771 76 18.5 77.8805 18.5 80.2V97C18.5 99.3194 20.3771 101.2 22.6923 101.2H39.4615C41.7767 101.2 43.6538 99.3194 43.6538 97V80.2C43.6538 77.8805 41.7767 76 39.4615 76ZM35.2692 92.8H26.8846V84.4H35.2692V92.8ZM56.2308 101.2H73C75.3152 101.2 77.1923 99.3194 77.1923 97V80.2C77.1923 77.8805 75.3152 76 73 76H56.2308C53.9156 76 52.0385 77.8805 52.0385 80.2V97C52.0385 99.3194 53.9156 101.2 56.2308 101.2ZM60.4231 84.4H68.8077V92.8H60.4231V84.4ZM39.4615 109.6H22.6923C20.3771 109.6 18.5 111.481 18.5 113.8V130.6C18.5 132.919 20.3771 134.8 22.6923 134.8H39.4615C41.7767 134.8 43.6538 132.919 43.6538 130.6V113.8C43.6538 111.481 41.7767 109.6 39.4615 109.6ZM35.2692 126.4H26.8846V118H35.2692V126.4ZM39.4615 143.2H22.6923C20.3771 143.2 18.5 145.081 18.5 147.4V164.2C18.5 166.519 20.3771 168.4 22.6923 168.4H39.4615C41.7767 168.4 43.6538 166.519 43.6538 164.2V147.4C43.6538 145.081 41.7767 143.2 39.4615 143.2ZM35.2692 160H26.8846V151.6H35.2692V160ZM39.4615 176.8H22.6923C20.3771 176.8 18.5 178.681 18.5 181V197.8C18.5 200.119 20.3771 202 22.6923 202H39.4615C41.7767 202 43.6538 200.119 43.6538 197.8V181C43.6538 178.681 41.7767 176.8 39.4615 176.8ZM35.2692 193.6H26.8846V185.2H35.2692V193.6ZM73 193.6H60.4231V189.4C60.4231 187.081 58.546 185.2 56.2308 185.2C53.9156 185.2 52.0385 187.081 52.0385 189.4V197.8C52.0385 200.119 53.9156 202 56.2308 202H73C75.3152 202 77.1923 200.119 77.1923 197.8C77.1923 195.481 75.3152 193.6 73 193.6ZM198.769 185.2C196.454 185.2 194.577 187.081 194.577 189.4V193.6H182C179.685 193.6 177.808 195.481 177.808 197.8C177.808 200.119 179.685 202 182 202H198.769C201.084 202 202.962 200.119 202.962 197.8V189.4C202.962 187.081 201.084 185.2 198.769 185.2ZM232.308 76H215.538C213.223 76 211.346 77.8805 211.346 80.2V97C211.346 99.3194 213.223 101.2 215.538 101.2H232.308C234.623 101.2 236.5 99.3194 236.5 97V80.2C236.5 77.8805 234.623 76 232.308 76ZM228.115 92.8H219.731V84.4H228.115V92.8ZM182 101.2H198.769C201.084 101.2 202.962 99.3194 202.962 97V80.2C202.962 77.8805 201.084 76 198.769 76H182C179.685 76 177.808 77.8805 177.808 80.2V97C177.808 99.3194 179.685 101.2 182 101.2ZM186.192 84.4H194.577V92.8H186.192V84.4ZM232.308 109.6H215.538C213.223 109.6 211.346 111.481 211.346 113.8V130.6C211.346 132.919 213.223 134.8 215.538 134.8H232.308C234.623 134.8 236.5 132.919 236.5 130.6V113.8C236.5 111.481 234.623 109.6 232.308 109.6ZM228.115 126.4H219.731V118H228.115V126.4ZM232.308 143.2H215.538C213.223 143.2 211.346 145.081 211.346 147.4V164.2C211.346 166.519 213.223 168.4 215.538 168.4H232.308C234.623 168.4 236.5 166.519 236.5 164.2V147.4C236.5 145.081 234.623 143.2 232.308 143.2ZM228.115 160H219.731V151.6H228.115V160ZM232.308 176.8H215.538C213.223 176.8 211.346 178.681 211.346 181V197.8C211.346 200.119 213.223 202 215.538 202H232.308C234.623 202 236.5 200.119 236.5 197.8V181C236.5 178.681 234.623 176.8 232.308 176.8ZM228.115 193.6H219.731V185.2H228.115V193.6Z" fill="black"/>
<path d="M206.199 128.943L197.778 107.981C197.138 106.389 195.59 105.346 193.868 105.346H164.395V101.154C164.395 99.7079 163.647 98.3648 162.416 97.5987L128.731 76.6371C127.366 75.7876 125.634 75.7876 124.268 76.6371L90.5842 97.5987C89.3532 98.3648 88.6053 99.7079 88.6053 101.154V105.346H59.1317C57.4101 105.346 55.8617 106.389 55.2222 107.981L46.8012 128.943C46.2823 130.234 46.4407 131.698 47.2238 132.85C48.007 134.002 49.3133 134.692 50.7107 134.692H59.1317V180.808C59.1317 183.123 61.017 185 63.3422 185H189.658C191.983 185 193.868 183.123 193.868 180.808V134.692H202.289C203.687 134.692 204.992 134.003 205.776 132.85C206.56 131.698 206.718 130.234 206.199 128.943ZM97.0263 176.615H67.5527V134.692H97.0263V176.615ZM97.0263 126.308H56.9296L61.9822 113.731H88.6053V117.923C88.6053 119.447 89.4358 120.851 90.7748 121.59C92.1137 122.329 93.7495 122.285 95.0474 121.478L97.0263 120.247V126.308ZM97.0263 103.477L126.5 85.136L155.974 103.477V110.36L128.731 93.4064C128.049 92.9814 127.274 92.7691 126.5 92.7691C125.726 92.7691 124.951 92.9814 124.268 93.4064L97.0263 110.359V103.477ZM130.71 176.615H122.289V159.846H130.71V176.615ZM147.552 176.615H139.131V155.654C139.131 153.339 137.246 151.461 134.921 151.461H118.079C115.754 151.461 113.868 153.339 113.868 155.654V176.615H105.447V115.006L126.5 101.905L147.552 115.006V176.615ZM185.447 176.615H155.974V134.692H185.447V176.615ZM155.974 126.308V120.247L157.952 121.478C158.634 121.902 159.409 122.115 160.185 122.115C160.886 122.115 161.589 121.941 162.225 121.59C163.564 120.851 164.395 119.447 164.395 117.923V113.731H191.017L196.07 126.308H155.974Z" fill="black"/>
<path d="M139.192 120.8C139.192 113.742 133.499 108 126.5 108C119.501 108 113.808 113.742 113.808 120.8C113.808 127.858 119.501 133.6 126.5 133.6C133.499 133.6 139.192 127.858 139.192 120.8ZM126.5 125.067C124.167 125.067 122.269 123.153 122.269 120.8C122.269 118.447 124.167 116.533 126.5 116.533C128.833 116.533 130.731 118.447 130.731 120.8C130.731 123.153 128.833 125.067 126.5 125.067ZM164.577 146.4H177.269C179.606 146.4 181.5 144.49 181.5 142.133C181.5 139.777 179.606 137.867 177.269 137.867H164.577C162.24 137.867 160.346 139.777 160.346 142.133C160.346 144.49 162.24 146.4 164.577 146.4ZM164.577 159.2H177.269C179.606 159.2 181.5 157.29 181.5 154.933C181.5 152.577 179.606 150.667 177.269 150.667H164.577C162.24 150.667 160.346 152.577 160.346 154.933C160.346 157.29 162.24 159.2 164.577 159.2ZM177.269 163.467H164.577C162.24 163.467 160.346 165.377 160.346 167.733C160.346 170.09 162.24 172 164.577 172H177.269C179.606 172 181.5 170.09 181.5 167.733C181.5 165.377 179.606 163.467 177.269 163.467ZM75.7308 146.4H88.4231C90.7595 146.4 92.6538 144.49 92.6538 142.133C92.6538 139.777 90.7595 137.867 88.4231 137.867H75.7308C73.3943 137.867 71.5 139.777 71.5 142.133C71.5 144.49 73.3943 146.4 75.7308 146.4ZM88.4231 150.667H75.7308C73.3943 150.667 71.5 152.577 71.5 154.933C71.5 157.29 73.3943 159.2 75.7308 159.2H88.4231C90.7595 159.2 92.6538 157.29 92.6538 154.933C92.6538 152.577 90.7595 150.667 88.4231 150.667ZM88.4231 163.467H75.7308C73.3943 163.467 71.5 165.377 71.5 167.733C71.5 170.09 73.3943 172 75.7308 172H88.4231C90.7595 172 92.6538 170.09 92.6538 167.733C92.6538 165.377 90.7595 163.467 88.4231 163.467ZM139.192 137.867H134.962C132.625 137.867 130.731 139.777 130.731 142.133C130.731 144.49 132.625 146.4 134.962 146.4H139.192C141.529 146.4 143.423 144.49 143.423 142.133C143.423 139.777 141.529 137.867 139.192 137.867ZM118.038 137.867H113.808C111.471 137.867 109.577 139.777 109.577 142.133C109.577 144.49 111.471 146.4 113.808 146.4H118.038C120.375 146.4 122.269 144.49 122.269 142.133C122.269 139.777 120.375 137.867 118.038 137.867Z" fill="black"/>
</g>
<defs>
<clipPath id="clip0_3_89">
<rect width="252" height="218" fill="white" transform="translate(0.5)"/>
</clipPath>
</defs>
</svg>
